{"title":"Match of the Day - S51E07 - 19th September 2015 - 720p x264","uid":12453231,"size":1800240901,"categoryP":"video","categoryS":"tv_shows","magnet":"?xt=urn:btih:fead5494e6e5b0731d3e1a477b0000763b62504d&amp;dn=Match+of+the+Day+-+S51E07+-+19th+September+2015+-+720p+x264&amp;tr=udp%3A%2F%2Ftracker.openbittorrent.com%3A80&amp;tr=udp%3A%2F%2Fopen.demonii.com%3A1337&amp;tr=udp%3A%2F%2Ftracker.coppersurfer.tk%3A6969&amp;tr=udp%3A%2F%2Fexodus.desync.com%3A6969","seeders":17,"leechers":3,"uploader":"rugbybill","files":3,"time":1442710931,"description":"SPORT: Match of the Day\nOn: BBC 1 HD   \nDate: Saturday 19th September 2015 \nTime: 22:30 to 23:55 \n\nGary Lineker introduces highlights and reaction to the day's seven Premier League matches, with studio guests Alan Shearer and Danny Murphy. Champions Chelsea entertain Arsenal at Stamford Bridge, the second meeting between the clubs this season following the Gunners' victory in the Community Shield in August. That win was Arsene Wenger's first in 14 attempts over his old adversary Jose Mourinho across an 11-year period. The day's other fixtures see Manchester City host West Ham, Roberto Martinez take his Everton side to former employees Swansea, Aston Villa play West Midlands neighbours West Bromwich Albion, Newcastle face Watford, Bournemouth take on Sunderland and Stoke meet Leicester.\n\nRunning sequence:\n\nMan City v West Ham\nChelsea v Arsenal\nNewcastle v Watford\nStoke v Leicester\nBournemouth v Sunderland\nAston Villa v West Brom\nSwansea v Everton\n\n\nGeneral\nComplete name               : Match.of.the.Day-S51E07-2015.09.19-720p.x264.mp4\nFormat                      : MPEG-4\nFormat profile              : Base Media / Version 2\nCodec ID                    : mp42\nFile size                   : 1.68 GiB\nDuration                    : 1h 25mn\nOverall bit rate mode       : Variable\nOverall bit rate            : 2 812 Kbps\nWriting application         : #YGFD                     \n\nVideo\nID                          : 1\nFormat                      : AVC\nFormat/Info                 : Advanced Video Codec\nFormat profile              : High@L4\nFormat settings, CABAC      : Yes\nFormat settings, ReFrames   : 8 frames\nCodec ID                    : avc1\nCodec ID/Info               : Advanced Video Coding\nDuration                    : 1h 25mn\nBit rate                    : 2 650 Kbps\nWidth                       : 1 280 pixels\nHeight                      : 720 pixels\nDisplay aspect ratio        : 16:9\nFrame rate mode             : Constant\nFrame rate                  : 25.000 fps\nColor space                 : YUV\nChroma subsampling          : 4:2:0\nBit depth                   : 8 bits\nScan type                   : Progressive\nBits/(Pixel*Frame)          : 0.115\nStream size                 : 1.58 GiB (94%)\nWriting library             : x264 core 130 r2273 b3065e6\nEncoding settings           : cabac=1 / ref=8 / deblock=1:0:0 / analyse=0x3:0x133 / me=umh / subme=9 / psy=1 / psy_rd=1.00:0.00 / mixed_ref=1 / me_range=16 / chroma_me=1 / trellis=2 / 8x8dct=1 / cqm=0 / deadzone=21,11 / fast_pskip=1 / chroma_qp_offset=-2 / threads=24 / lookahead_threads=2 / sliced_threads=0 / nr=0 / decimate=1 / interlaced=0 / bluray_compat=0 / constrained_intra=0 / bframes=3 / b_pyramid=2 / b_adapt=2 / b_bias=0 / direct=3 / weightb=1 / open_gop=0 / weightp=2 / keyint=250 / keyint_min=25 / scenecut=40 / intra_refresh=0 / rc_lookahead=60 / rc=abr / mbtree=1 / bitrate=2650 / ratetol=1.0 / qcomp=0.60 / qpmin=0 / qpmax=69 / qpstep=4 / ip_ratio=1.40 / aq=1:1.00\n\nAudio\nID                          : 2\nFormat                      : AAC\nFormat/Info                 : Advanced Audio Codec\nFormat profile              : LC\nCodec ID                    : 40\nDuration                    : 1h 25mn\nBit rate mode               : Variable\nBit rate                    : 160 Kbps\nMaximum bit rate            : 308 Kbps\nChannel(s)                  : 2 channels\nChannel positions           : Front: L R\nSampling rate               : 48.0 KHz\nCompression mode            : Lossy\nStream size                 : 97.6 MiB (6%)\nTitle                       : Stereo\nLanguage                    : English","torrent":{"xt":"urn:btih:fead5494e6e5b0731d3e1a477b0000763b62504d","amp;dn":"Match+of+the+Day+-+S51E07+-+19th+September+2015+-+720p+x264","amp;tr":["udp%3A%2F%2Ftracker.openbittorrent.com%3A80","udp%3A%2F%2Fopen.demonii.com%3A1337","udp%3A%2F%2Ftracker.coppersurfer.tk%3A6969","udp%3A%2F%2Fexodus.desync.com%3A6969"],"infoHash":"fead5494e6e5b0731d3e1a477b0000763b62504d","infoHashBuffer":{"type":"Buffer","data":[254,173,84,148,230,229,176,115,29,62,26,71,123,0,0,118,59,98,80,77]},"announce":[],"urlList":[]}}